# Blender 5.2.1 LTS
# www.blender.org
mtllib Табуретка.mtl
o Куб
v -0.400000 0.200000 0.400000
v -0.400000 0.400000 0.400000
v -0.400000 0.200000 -0.400000
v -0.400000 0.400000 -0.400000
v 0.400000 0.200000 0.400000
v 0.400000 0.400000 0.400000
v 0.400000 0.200000 -0.400000
v 0.400000 0.400000 -0.400000
v -0.325000 0.075000 0.140625
v -0.325000 -0.075000 0.159375
v -0.175000 0.075000 0.140625
v -0.175000 -0.075000 0.159375
v -0.325000 0.075000 -0.140625
v -0.325000 -0.075000 -0.159375
v -0.175000 -0.075000 -0.159375
v -0.175000 0.075000 -0.140625
v 0.200000 -0.400000 -0.200000
v 0.200000 -0.400000 -0.400000
v 0.400000 -0.400000 -0.200000
v 0.400000 -0.400000 -0.400000
v -0.200000 -0.400000 -0.200000
v -0.400000 -0.400000 -0.200000
v -0.200000 -0.400000 -0.400000
v -0.400000 -0.400000 -0.400000
v -0.200000 -0.400000 0.200000
v -0.200000 -0.400000 0.400000
v -0.400000 -0.400000 0.200000
v -0.400000 -0.400000 0.400000
v 0.200000 -0.400000 0.200000
v 0.400000 -0.400000 0.200000
v 0.200000 -0.400000 0.400000
v 0.400000 -0.400000 0.400000
v -0.140625 0.075000 -0.325000
v -0.159375 -0.075000 -0.325000
v -0.140625 0.075000 -0.175000
v -0.159375 -0.075000 -0.175000
v 0.140625 0.075000 -0.325000
v 0.159375 -0.075000 -0.325000
v 0.159375 -0.075000 -0.175000
v 0.140625 0.075000 -0.175000
v 0.175000 0.075000 0.140625
v 0.175000 -0.075000 0.159375
v 0.325000 0.075000 0.140625
v 0.325000 -0.075000 0.159375
v 0.175000 0.075000 -0.140625
v 0.175000 -0.075000 -0.159375
v 0.325000 -0.075000 -0.159375
v 0.325000 0.075000 -0.140625
v -0.140625 0.075000 0.175000
v -0.159375 -0.075000 0.175000
v -0.140625 0.075000 0.325000
v -0.159375 -0.075000 0.325000
v 0.140625 0.075000 0.175000
v 0.159375 -0.075000 0.175000
v 0.159375 -0.075000 0.325000
v 0.140625 0.075000 0.325000
v 0.125000 0.200000 -0.325000
v 0.325000 0.200000 -0.325000
v 0.325000 0.200000 -0.125000
v -0.325000 0.200000 -0.125000
v -0.325000 0.200000 -0.325000
v -0.125000 0.200000 -0.325000
v -0.125000 0.200000 0.325000
v -0.325000 0.200000 0.325000
v -0.325000 0.200000 0.125000
v 0.325000 0.200000 0.125000
v 0.325000 0.200000 0.325000
v 0.125000 0.200000 0.325000
v -0.125000 0.200000 -0.125000
v 0.125000 0.200000 0.125000
v 0.125000 0.200000 -0.125000
v -0.125000 0.200000 0.125000
vn -1.0000 -0.0000 -0.0000
vn -0.0000 -0.0000 -1.0000
vn 1.0000 -0.0000 -0.0000
vn -0.0000 -0.0000 1.0000
vn -0.0000 1.0000 -0.0000
vn -0.0000 -1.0000 -0.0000
vn -0.0000 -0.1240 -0.9923
vn -0.9923 -0.1240 -0.0000
vn -0.0000 0.1240 -0.9923
vn 0.9923 0.1240 -0.0000
vn -0.0000 -0.1240 0.9923
vn -0.9923 0.1240 -0.0000
vn -0.0000 0.1240 0.9923
vn 0.9923 -0.1240 -0.0000
vt 0.375000 0.000000
vt 0.625000 0.000000
vt 0.625000 0.250000
vt 0.375000 0.250000
vt 0.625000 0.500000
vt 0.375000 0.500000
vt 0.625000 0.750000
vt 0.375000 0.750000
vt 0.625000 1.000000
vt 0.375000 1.000000
vt 0.875000 0.500000
vt 0.875000 0.750000
vt 0.375000 0.483754
vt 0.375000 0.266246
vt 0.625000 0.279041
vt 0.625000 0.470959
vt 0.625000 0.779041
vt 0.625000 0.970959
vt 0.375000 0.983754
vt 0.375000 0.766246
vt 0.141246 0.750000
vt 0.141246 0.500000
vt 0.358754 0.500000
vt 0.358754 0.750000
vt 0.845959 0.500000
vt 0.845959 0.750000
vt 0.654041 0.750000
vt 0.654041 0.500000
vt 0.125000 0.750000
vt 0.125000 0.500000
vt 0.562500 0.500000
vt 0.562500 0.250000
vt 0.562500 0.750000
vt 0.031250 0.187500
vt 0.000000 0.000000
s 0
f 1/1/1 2/2/1 4/3/1 3/4/1
f 3/4/2 4/3/2 8/5/2 7/6/2
f 7/6/3 8/5/3 6/7/3 5/8/3
f 5/8/4 6/7/4 2/9/4 1/10/4
f 8/5/5 4/11/5 2/12/5 6/7/5
f 14/13/1 10/14/1 9/15/1 13/16/1
f 16/17/3 11/18/3 12/19/3 15/20/3
f 12/21/6 10/22/6 14/23/6 15/24/6
f 9/25/5 11/26/5 16/27/5 13/28/5
f 10/22/7 12/21/7 25/29/7 27/8/7
f 17/29/8 39/24/8 38/23/8 18/30/8
f 58/31/9 20/6/9 18/4/9 57/32/9
f 19/8/10 20/6/10 58/31/10 59/33/10
f 18/30/6 20/6/6 19/8/6 17/29/6
f 13/16/11 16/17/11 69/34/11 60/32/11
f 61/31/12 24/6/12 22/4/12 60/32/12
f 23/8/9 24/6/9 61/31/9 62/33/9
f 22/30/6 24/6/6 23/8/6 21/29/6
f 28/6/13 26/4/13 63/32/13 64/31/13
f 65/33/12 27/8/12 28/6/12 64/31/12
f 26/30/6 28/6/6 27/8/6 25/29/6
f 67/31/10 32/6/10 30/4/10 66/32/10
f 68/33/13 31/8/13 32/6/13 67/31/13
f 31/8/8 55/24/8 54/23/8 29/29/8
f 30/30/6 32/6/6 31/8/6 29/29/6
f 38/13/2 34/14/2 33/15/2 37/16/2
f 40/17/4 35/18/4 36/19/4 39/20/4
f 36/21/6 34/22/6 38/23/6 39/24/6
f 33/25/5 35/26/5 40/27/5 37/28/5
f 21/29/14 23/8/14 34/22/14 36/21/14
f 46/13/1 42/14/1 41/15/1 45/16/1
f 48/17/3 43/18/3 44/19/3 47/20/3
f 44/21/6 42/22/6 46/23/6 47/24/6
f 41/25/5 43/26/5 48/27/5 45/28/5
f 30/30/7 29/29/7 42/22/7 44/21/7
f 16/17/11 15/20/11 21/29/11 69/34/11
f 54/13/2 50/14/2 49/15/2 53/16/2
f 56/17/4 51/18/4 52/19/4 55/20/4
f 52/21/6 50/22/6 54/23/6 55/24/6
f 49/25/5 51/26/5 56/27/5 53/28/5
f 56/17/8 68/33/8 70/35/8 53/16/8
f 39/20/8 17/29/8 71/35/8 40/17/8
f 37/16/8 40/27/8 71/35/8 57/32/8
f 15/20/11 14/13/11 22/30/11 21/29/11
f 19/8/11 47/24/11 46/23/11 17/29/11
f 45/16/11 48/17/11 59/33/11 71/35/11
f 59/33/11 48/17/11 47/20/11 19/8/11
f 45/16/11 71/35/11 17/29/11 46/23/11
f 11/26/7 72/35/7 25/1/7 12/21/7
f 9/15/7 65/33/7 72/35/7 11/26/7
f 9/15/7 10/22/7 27/8/7 65/33/7
f 49/25/14 50/22/14 25/1/14 72/35/14
f 26/4/14 25/29/14 50/22/14 52/19/14
f 26/4/14 52/19/14 51/18/14 63/35/14
f 29/29/8 54/13/8 53/16/8 70/35/8
f 68/33/8 56/17/8 55/20/8 31/8/8
f 41/25/7 42/22/7 29/29/7 70/35/7
f 30/30/7 44/21/7 43/18/7 66/35/7
f 70/35/7 66/35/7 43/26/7 41/25/7
f 13/16/11 60/32/11 22/4/11 14/13/11
f 38/13/8 37/16/8 57/32/8 18/4/8
f 72/35/14 63/35/14 51/26/14 49/25/14
f 62/35/14 69/35/14 35/26/14 33/25/14
f 23/8/14 62/35/14 33/15/14 34/22/14
f 35/18/14 69/34/14 21/29/14 36/19/14
f 5/8/6 1/10/6 64/31/6 63/32/6 68/33/6 67/31/6
f 5/8/6 67/31/6 66/32/6 59/33/6 58/31/6 7/6/6
f 3/4/6 7/6/6 58/31/6 57/32/6 62/33/6 61/31/6
f 1/10/6 3/4/6 61/31/6 60/32/6 65/33/6 64/31/6
f 60/32/6 69/34/6 72/35/6 65/33/6
f 63/32/6 72/35/6 70/35/6 68/33/6
f 71/35/6 59/33/6 66/35/6 70/35/6
f 71/35/6 69/35/6 62/35/6 57/32/6
f 72/35/6 69/35/6 71/35/6 70/35/6
